# xmcd
# 
# Track frame offsets:
#     150
#     15400
#     33487
# 
# Disc length: 666
# 
# Revision: 2
# Processed by: cddbd v1.5.1PL0 Copyright (c) Steve Scherf et al.
# Submitted via: BonkEnc v1.0beta3
# 
DISCID=17029803
DTITLE=Matterhorn Project - MUH!
DYEAR=1995
DGENRE=Pop
TTITLE0=MUH! (Origional hit-single of 1985)
TTITLE1=So Ein Scheiss
TTITLE2=MUH! (Remix of 1994)
EXTD=This was the CD single sent to radio stations for airplay.
EXTT0=
EXTT1=
EXTT2=
PLAYORDER=
